<?xml version="1.0" standalone="no"?>
<!DOCTYPE svg PUBLIC "-//W3C//DTD SVG 20010904//EN"
 "http://www.w3.org/TR/2001/REC-SVG-20010904/DTD/svg10.dtd">
<svg version="1.0" xmlns="http://www.w3.org/2000/svg"
 width="920.000000pt" height="921.000000pt" viewBox="0 0 920.000000 921.000000"
 preserveAspectRatio="xMidYMid meet">

<g transform="translate(0.000000,921.000000) scale(0.100000,-0.100000)"
fill="#000000" stroke="none">
<path d="M4350 9204 c-646 -44 -1212 -195 -1765 -472 -1019 -509 -1819 -1386
-2249 -2468 -163 -411 -264 -834 -318 -1334 -16 -154 -16 -709 0 -870 52 -503
152 -923 324 -1355 460 -1155 1368 -2089 2503 -2573 290 -124 392 -144 490
-98 59 28 77 46 105 108 20 45 20 63 20 473 -1 234 -5 425 -10 425 -4 0 -61
-10 -127 -21 -158 -29 -473 -32 -606 -6 -319 64 -577 239 -735 500 -18 30 -56
112 -85 183 -124 301 -300 543 -481 658 -69 45 -133 99 -168 143 -22 28 -28
45 -26 72 3 32 9 39 52 60 96 48 265 27 421 -52 176 -88 295 -204 447 -432
144 -217 259 -330 411 -403 248 -120 531 -119 829 0 l82 33 18 90 c35 181 121
371 215 475 29 32 53 60 53 63 0 3 -28 8 -62 12 -230 25 -581 109 -783 188
-266 102 -475 236 -660 421 -359 360 -534 819 -575 1504 -34 573 92 1010 408
1405 l54 68 -26 92 c-70 251 -78 564 -20 841 18 86 71 260 91 300 l15 29 121
-6 c273 -12 603 -145 1001 -404 l129 -84 126 30 c415 98 786 135 1201 119 284
-11 619 -58 877 -124 l103 -26 122 79 c300 195 544 311 793 379 109 30 315 45
340 24 19 -16 80 -205 105 -324 58 -283 48 -613 -25 -846 l-26 -81 39 -44
c127 -144 266 -393 332 -593 80 -246 105 -441 96 -747 -25 -858 -300 -1453
-836 -1805 -305 -200 -645 -311 -1220 -396 l-36 -5 39 -42 c129 -137 227 -371
256 -612 7 -58 11 -355 11 -833 0 -812 -2 -782 58 -846 42 -44 98 -66 173 -66
73 0 209 45 427 140 1454 640 2490 1991 2741 3575 44 276 55 428 55 755 1 410
-32 729 -111 1070 -270 1179 -941 2180 -1913 2854 -537 373 -1186 639 -1808
741 -86 14 -218 32 -292 40 -128 15 -602 27 -720 19z m536 -334 c262 -20 485
-54 693 -105 1116 -274 2055 -972 2660 -1975 410 -679 631 -1483 631 -2289 0
-594 -110 -1161 -326 -1694 -443 -1089 -1280 -1939 -2353 -2388 -51 -21 -97
-39 -101 -39 -5 0 -10 314 -13 697 -4 654 -6 705 -25 808 -11 61 -33 148 -47
194 -15 45 -25 84 -23 86 2 1 66 19 143 40 488 131 894 378 1178 715 351 416
533 964 562 1690 17 410 -56 782 -216 1111 -59 121 -160 288 -205 340 -12 14
-12 26 0 85 30 145 39 263 33 462 -7 294 -44 474 -160 787 l-44 120 -56 23
c-187 75 -419 76 -671 1 -223 -66 -482 -184 -722 -331 l-131 -79 -144 30
c-348 72 -584 96 -949 96 -365 0 -601 -24 -949 -96 l-143 -30 -132 79 c-252
152 -425 234 -641 305 -295 97 -509 108 -713 35 -48 -17 -88 -32 -90 -34 -9
-7 -117 -311 -138 -388 -55 -207 -69 -323 -68 -586 1 -203 4 -264 21 -354 l20
-109 -72 -107 c-268 -400 -386 -869 -356 -1427 40 -750 248 -1311 635 -1712
76 -79 76 -80 -28 -13 -90 58 -219 114 -331 143 -114 29 -286 31 -385 5 -191
-51 -313 -176 -342 -349 -13 -82 5 -169 54 -256 42 -75 172 -202 281 -275 155
-104 276 -276 372 -526 56 -146 133 -280 218 -377 104 -119 -121 90 -292 272
-620 657 -1032 1528 -1150 2430 -69 524 -45 1102 64 1586 293 1300 1150 2401
2313 2973 515 253 1015 387 1602 429 108 8 418 6 536 -3z m-2511 -6367 c131
-84 304 -170 459 -227 94 -36 336 -106 362 -106 23 0 23 -15 2 -83 -23 -76
-24 -77 -173 -98 -239 -33 -442 72 -584 301 -84 137 -143 220 -197 280 -43 47
-49 57 -24 38 19 -15 89 -62 155 -105z m52 -1746 c171 -62 329 -87 546 -87
l157 -1 0 -144 c0 -80 -3 -145 -8 -145 -37 0 -416 175 -585 271 -101 57 -277
169 -277 175 0 2 21 -6 48 -20 26 -13 79 -35 119 -49z"/>
</g>
</svg>
