<?xml version="1.0" standalone="no"?>
<!DOCTYPE svg PUBLIC "-//W3C//DTD SVG 20010904//EN"
 "http://www.w3.org/TR/2001/REC-SVG-20010904/DTD/svg10.dtd">
<svg version="1.0" xmlns="http://www.w3.org/2000/svg"
 width="512.000000pt" height="512.000000pt" viewBox="0 0 512.000000 512.000000"
 preserveAspectRatio="xMidYMid meet">

<g transform="translate(0.000000,512.000000) scale(0.100000,-0.100000)"
fill="#000000" stroke="none">
<path d="M2315 5109 c-800 -83 -1501 -518 -1927 -1196 -604 -960 -491 -2229
272 -3065 423 -463 951 -740 1585 -830 118 -17 511 -16 635 0 579 80 1097 337
1491 739 130 132 157 163 243 277 256 341 423 757 488 1211 17 118 17 512 0
630 -43 303 -122 561 -247 814 -134 268 -270 459 -483 674 -395 400 -889 649
-1457 733 -123 18 -478 26 -600 13z m-922 -901 c102 -22 216 -126 258 -237 73
-193 -14 -406 -201 -495 -60 -29 -73 -31 -170 -31 -94 0 -111 3 -161 28 -87
42 -143 98 -185 183 -100 201 -18 439 183 531 87 40 163 46 276 21z m2241
-1047 c243 -64 401 -218 475 -466 54 -177 54 -176 58 -987 l4 -758 -340 0
-341 0 0 628 c-1 698 -4 737 -62 852 -61 118 -158 166 -323 158 -192 -10 -299
-101 -352 -300 -15 -55 -17 -143 -20 -700 l-4 -638 -340 0 -339 0 0 1095 0
1095 325 0 325 0 0 -150 c0 -82 3 -150 8 -150 4 0 16 16 27 36 27 51 142 163
209 203 73 44 155 76 241 95 100 22 341 15 449 -13z m-2014 -1116 l0 -1095
-340 0 -340 0 0 1095 0 1095 340 0 340 0 0 -1095z"/>
</g>
</svg>
